<?xml version="1.0" encoding="UTF-8"?>
<!DOCTYPE svg PUBLIC "-//W3C//DTD SVG 1.1//EN" "http://www.w3.org/Graphics/SVG/1.1/DTD/svg11.dtd">
<!-- Creator: CorelDRAW X7 -->
<svg xmlns="http://www.w3.org/2000/svg" xml:space="preserve" width="8.4667mm" height="8.4664mm" version="1.1" style="shape-rendering:geometricPrecision; text-rendering:geometricPrecision; image-rendering:optimizeQuality; fill-rule:evenodd; clip-rule:evenodd"
viewBox="0 0 40 40"
 xmlns:xlink="http://www.w3.org/1999/xlink">
 <defs>
  <style type="text/css">
   <![CDATA[
    .fil0 {fill:#00AFEF}
   ]]>
  </style>
 </defs>
 <g id="Layer_x0020_1">
  <metadata id="CorelCorpID_0Corel-Layer"/>
  <path class="fil0" d="M20 0c11,0 19,8 20,19 -1,1 -2,2 -4,3 0,-1 0,-2 0,-2 0,-9 -7,-16 -16,-16 -6,0 -11,3 -14,8 -1,0 -1,0 -2,0 -1,1 -2,2 -3,3 2,-9 10,-15 19,-15zm19 25c-2,8 -10,15 -19,15 -11,0 -19,-8 -20,-18 1,-2 3,-3 4,-4 0,1 0,1 0,2 0,9 7,16 16,16 6,0 12,-3 14,-9 2,0 4,-1 5,-2zm-19 -18c7,0 13,6 13,13 0,1 -1,2 -1,3 -1,1 -3,1 -4,1 1,-1 1,-3 1,-4 0,-5 -4,-9 -9,-9 -2,0 -4,0 -6,2 -1,-1 -2,-1 -4,-1 3,-3 6,-5 10,-5zm9 21c-2,3 -5,5 -9,5 -7,0 -13,-6 -13,-13 0,-1 0,-3 1,-4 1,0 2,0 3,1 0,1 0,2 0,3 0,5 4,9 9,9 2,0 4,0 5,-1 2,0 3,0 4,0zm-9 -14c3,0 6,3 6,6 0,1 0,1 -1,2 -1,-1 -1,-2 -2,-2 -2,-2 -3,-4 -6,-5 1,-1 2,-1 3,-1zm2 11c-1,1 -1,1 -2,1 -3,0 -6,-3 -6,-6 0,-1 0,-1 0,-2 3,2 4,3 6,5 0,1 1,1 2,2z"/>
 </g>
</svg>
